<svg xmlns="http://www.w3.org/2000/svg" viewBox="0 0 24 24" fill="none">
  <path d="M4.84 9.75h14.32c1.43 0 2.5 1.31 2.13 2.69l-1.62 6A2.25 2.25 0 0 1 17.49 20.1H6.51a2.25 2.25 0 0 1-2.18-1.66l-1.62-6A2.2 2.2 0 0 1 4.84 9.75Z" stroke="white" stroke-width="1.25" stroke-linejoin="round"/>
  <path d="M3.75 9.75V7.5A2.25 2.25 0 0 1 6 5.25h3.11c.5 0 .98.2 1.33.55l1.22 1.2c.35.36.83.56 1.33.56H18A2.25 2.25 0 0 1 20.25 9.8v-.05" stroke="white" stroke-width="1.25" stroke-linecap="round" stroke-linejoin="round"/>
</svg>
